<svg xmlns="http://www.w3.org/2000/svg" version="1.1" xmlns:xlink="http://www.w3.org/1999/xlink" xmlns:svgjs="http://svgjs.dev/svgjs" width="1500" height="1500" viewBox="0 0 1500 1500"><rect width="1500" height="1500" fill="#ffffff"></rect><g transform="matrix(0.6666666666666666,0,0,0.6666666666666666,249.39393939393938,438.5856950067477)"><svg viewBox="0 0 396 247" data-background-color="#ffffff" preserveAspectRatio="xMidYMid meet" height="935" width="1500" xmlns="http://www.w3.org/2000/svg" xmlns:xlink="http://www.w3.org/1999/xlink"><g id="tight-bounds" transform="matrix(1,0,0,1,0.2400000000000091,-0.09999999999999432)"><svg viewBox="0 0 395.52 247.2" height="247.2" width="395.52"><g><svg></svg></g><g><svg viewBox="0 0 395.52 247.2" height="247.2" width="395.52"><g transform="matrix(1,0,0,1,75.54432000000001,98.08058599570421)"><svg viewBox="0 0 244.43135999999996 51.03882800859158" height="51.03882800859158" width="244.43135999999996"><g><svg viewBox="0 0 244.43135999999996 51.03882800859158" height="51.03882800859158" width="244.43135999999996"><g><svg viewBox="0 0 244.43135999999996 51.03882800859158" height="51.03882800859158" width="244.43135999999996"><g><svg viewBox="0 0 244.43135999999996 51.03882800859158" height="51.03882800859158" width="244.43135999999996"><g id="textblocktransform"><svg viewBox="0 0 244.43135999999996 51.03882800859158" height="51.03882800859158" width="244.43135999999996" id="textblock"><g><svg viewBox="0 0 244.43135999999996 51.03882800859158" height="51.03882800859158" width="244.43135999999996"><g transform="matrix(1,0,0,1,0,0)"><svg width="244.43135999999996" viewBox="1.88 -33.48 162.93 34.029999999999994" height="51.03882800859158" data-palette-color="#5280e2"><path d="M21.8 0L17.78 0 17.95-5.93 17.8-6.55 17.8-14.33 17.82-15.75Q17.82-18.73 16.31-20.15 14.8-21.58 11.53-21.58L11.53-21.58Q8.9-21.58 6.71-20.83 4.53-20.08 2.83-19.07L2.83-19.07 3.2-22.53Q4.15-23.1 5.46-23.66 6.78-24.23 8.46-24.6 10.15-24.98 12.18-24.98L12.18-24.98Q14.8-24.98 16.64-24.34 18.48-23.7 19.61-22.5 20.75-21.3 21.28-19.6 21.8-17.9 21.8-15.8L21.8-15.8 21.8 0ZM9.38 0.53L9.38 0.53Q5.75 0.53 3.81-1.24 1.88-3 1.88-6.28L1.88-6.28 1.88-7Q1.88-10.38 3.96-12.04 6.05-13.7 10.6-14.35L10.6-14.35 18.32-15.45 18.55-12.5 11.1-11.43Q8.3-11.03 7.1-10.06 5.9-9.1 5.9-7.23L5.9-7.23 5.9-6.83Q5.9-4.9 7.09-3.88 8.28-2.85 10.65-2.85L10.65-2.85Q12.75-2.85 14.25-3.58 15.75-4.3 16.68-5.53 17.6-6.75 17.93-8.25L17.93-8.25 18.55-5.5 17.78-5.5Q17.43-3.9 16.46-2.53 15.5-1.15 13.78-0.31 12.05 0.53 9.38 0.53ZM31.85-14.93L31.85-14.93 30.92-18.05 31.92-18.1Q32.72-21.2 34.67-22.99 36.62-24.78 39.85-24.78L39.85-24.78Q40.65-24.78 41.29-24.65 41.92-24.53 42.42-24.35L42.42-24.35 42.67-20.43Q42.05-20.63 41.29-20.75 40.52-20.88 39.6-20.88L39.6-20.88Q36.85-20.88 34.81-19.35 32.77-17.82 31.85-14.93ZM32.05 0L28 0 28-24.4 31.95-24.4 31.75-17.2 32.05-16.9 32.05 0ZM58.67 0.53L58.67 0.53Q56.42 0.53 54.76-0.23 53.1-0.98 52.07-2.38 51.05-3.78 50.7-5.63L50.7-5.63 49.35-5.63 50.57-9.43Q50.7-7.23 51.61-5.76 52.52-4.3 54.05-3.58 55.57-2.85 57.5-2.85L57.5-2.85Q60.55-2.85 62.16-4.65 63.77-6.45 63.77-10L63.77-10 63.77-14.58Q63.77-18.05 62.15-19.85 60.52-21.65 57.42-21.65L57.42-21.65Q55.57-21.65 54.15-20.93 52.72-20.2 51.78-18.95 50.85-17.7 50.5-16.1L50.5-16.1 49.57-18.93 50.72-18.93Q51.1-20.6 52.06-21.96 53.02-23.33 54.7-24.14 56.37-24.95 58.85-24.95L58.85-24.95Q63.25-24.95 65.55-22.21 67.84-19.48 67.84-14.28L67.84-14.28 67.84-10.23Q67.84-4.98 65.51-2.23 63.17 0.53 58.67 0.53ZM50.7 0L46.65 0 46.65-33.13 50.67-33.13 50.67-25.18 50.55-18.18 50.57-17.4 50.57-7.2 50.52-5.9 50.7 0ZM77.62 0L73.57 0 73.57-24.4 77.62-24.4 77.62 0ZM75.59-28.4L75.59-28.4Q74.34-28.4 73.73-29.06 73.12-29.73 73.12-30.88L73.12-30.88 73.12-31Q73.12-32.18 73.73-32.83 74.34-33.48 75.59-33.48L75.59-33.48Q76.84-33.48 77.47-32.83 78.09-32.18 78.09-31L78.09-31 78.09-30.88Q78.09-29.7 77.47-29.05 76.84-28.4 75.59-28.4ZM93.19 0.5L93.19 0.5Q90.37 0.5 88.64-0.35 86.92-1.2 86.14-2.93 85.37-4.65 85.37-7.23L85.37-7.23 85.37-22.63 89.37-22.63 89.37-7.7Q89.37-5.3 90.47-4.16 91.57-3.03 94.17-3.03L94.17-3.03Q95.64-3.03 97-3.35 98.37-3.68 99.57-4.28L99.57-4.28 99.19-0.8Q98.02-0.2 96.44 0.15 94.87 0.5 93.19 0.5ZM98.94-20.8L81.37-20.8 81.37-24.05 99.32-24.05 98.94-20.8ZM89.27-23.65L85.39-23.65 85.37-30.5 89.44-31.03 89.27-23.65ZM107.94-14.93L107.94-14.93 107.01-18.05 108.01-18.1Q108.81-21.2 110.76-22.99 112.71-24.78 115.94-24.78L115.94-24.78Q116.74-24.78 117.38-24.65 118.01-24.53 118.51-24.35L118.51-24.35 118.76-20.43Q118.14-20.63 117.38-20.75 116.61-20.88 115.69-20.88L115.69-20.88Q112.94-20.88 110.9-19.35 108.86-17.82 107.94-14.93ZM108.14 0L104.09 0 104.09-24.4 108.04-24.4 107.84-17.2 108.14-16.9 108.14 0ZM132.99 0.55L132.99 0.55Q127.41 0.55 124.59-2.18 121.76-4.9 121.76-9.98L121.76-9.98 121.76-14.33Q121.76-19.48 124.39-22.26 127.01-25.05 132.06-25.05L132.06-25.05Q135.46-25.05 137.74-23.79 140.01-22.53 141.16-20.2 142.31-17.88 142.31-14.65L142.31-14.65 142.31-13.75Q142.31-12.95 142.25-12.15 142.19-11.35 142.09-10.58L142.09-10.58 138.36-10.58Q138.41-11.78 138.42-12.85 138.44-13.93 138.44-14.83L138.44-14.83Q138.44-17.05 137.72-18.59 137.01-20.13 135.6-20.94 134.19-21.75 132.06-21.75L132.06-21.75Q128.91-21.75 127.34-19.93 125.76-18.1 125.76-14.7L125.76-14.7 125.76-12.38 125.79-11.88 125.79-9.55Q125.79-8.03 126.24-6.8 126.69-5.58 127.65-4.69 128.61-3.8 130.1-3.34 131.59-2.88 133.64-2.88L133.64-2.88Q136.01-2.88 138.06-3.5 140.11-4.13 141.91-5.2L141.91-5.2 141.54-1.7Q139.91-0.68 137.76-0.06 135.61 0.55 132.99 0.55ZM141.24-10.58L123.89-10.58 123.89-13.63 141.24-13.63 141.24-10.58ZM155.33 0.55L155.33 0.55Q152.38 0.55 150.18-0.09 147.98-0.73 146.53-1.48L146.53-1.48 146.16-5.23Q147.98-4.28 150.17-3.58 152.36-2.88 155.13-2.88L155.13-2.88Q157.96-2.88 159.38-3.78 160.81-4.67 160.81-6.45L160.81-6.45 160.81-6.73Q160.81-7.88 160.27-8.63 159.73-9.38 158.33-9.95 156.93-10.53 154.36-11.1L154.36-11.1Q151.28-11.78 149.51-12.69 147.73-13.6 146.97-14.95 146.21-16.3 146.21-18.25L146.21-18.25 146.21-18.48Q146.21-21.68 148.43-23.33 150.66-24.98 155.13-24.98L155.13-24.98Q158.01-24.98 160.12-24.33 162.23-23.68 163.58-22.88L163.58-22.88 163.96-19.45Q162.33-20.4 160.23-21.03 158.13-21.65 155.51-21.65L155.51-21.65Q153.61-21.65 152.43-21.26 151.26-20.88 150.73-20.16 150.21-19.45 150.21-18.45L150.21-18.45 150.21-18.25Q150.21-17.15 150.73-16.39 151.26-15.63 152.62-15.06 153.98-14.5 156.41-13.98L156.41-13.98Q159.53-13.35 161.37-12.48 163.21-11.6 164.01-10.26 164.81-8.93 164.81-6.83L164.81-6.83 164.81-6.4Q164.81-2.95 162.41-1.2 160.01 0.55 155.33 0.55Z" opacity="1" transform="matrix(1,0,0,1,0,0)" fill="#5280e2" class="wordmark-text-0" data-fill-palette-color="primary" id="text-0"></path></svg></g></svg></g></svg></g></svg></g></svg></g></svg></g></svg></g><path d="M191.948 92.081L191.948 31.742 8.231 31.742 8.231 215.458 191.948 215.458 191.948 155.119 187.345 155.119 187.345 210.856 12.834 210.856 12.834 36.344 187.345 36.344 187.345 92.081Z" fill="#5280e2" stroke="transparent" data-fill-palette-color="tertiary"></path></svg></g><defs></defs></svg><rect width="395.52" height="247.2" fill="none" stroke="none" visibility="hidden"></rect></g></svg></g></svg>